<?xml version="1.0" encoding="UTF-8"?>
<svg width="496px" height="402px" viewBox="0 0 496 402" version="1.1" xmlns="http://www.w3.org/2000/svg" xmlns:xlink="http://www.w3.org/1999/xlink">
    <!-- Generator: Sketch 49 (51002) - http://www.bohemiancoding.com/sketch -->
    <title>Slice 1</title>
    <desc>Created with Sketch.</desc>
    <defs></defs>
    <g id="Page-1" stroke="none" stroke-width="1" fill="none" fill-rule="evenodd">
        <g id="cargo-ship" transform="translate(0.000000, 90.000000)" fill-rule="nonzero">
            <path d="M0.8,116.3 C27.2,228.5 127.8,312 248,312 C368.2,312 468.8,228.5 495.2,116.3 L0.8,116.3 Z" id="Shape" fill="#54C0EB"></path>
            <g id="Group" transform="translate(57.000000, 136.000000)" fill="#84DBFF">
                <path d="M0.8,5.9 C0.8,5.9 1.5,6.3 2.7,7 C3.3,7.3 4,7.7 4.9,8 C5.1,8.1 5.3,8.2 5.6,8.3 C5.8,8.4 6.1,8.4 6.3,8.5 C6.5,8.6 6.8,8.6 7,8.7 C7.3,8.7 7.5,8.8 7.8,8.8 C8.9,9 10,8.9 11.2,8.8 C12.4,8.7 13.7,8.3 15,7.8 C17.6,6.9 20.3,5.5 23.1,4.1 C25.9,2.7 28.9,1.3 32,0.6 C33.6,0.2 35.1,1.55292446e-14 36.6,0.1 C37.3,0.1 38.1,0.2 38.8,0.3 C39.5,0.5 40.2,0.6 40.8,0.9 C41.4,1.1 42,1.3 42.5,1.7 C42.8,1.8 43,2 43.2,2.1 C43.4,2.3 43.6,2.4 43.8,2.6 C44.7,3.2 45.2,3.8 45.7,4.3 C46.2,4.8 46.5,5.3 46.7,5.6 C46.9,5.9 47,6.1 47,6.1 C47,6.1 46.3,5.7 45.1,5 C44.5,4.7 43.8,4.3 42.9,4 C42.7,3.9 42.5,3.8 42.2,3.7 C42,3.6 41.7,3.6 41.5,3.5 C41.3,3.4 41,3.4 40.8,3.3 C40.5,3.3 40.3,3.2 40,3.2 C38.9,3 37.8,3.1 36.6,3.2 C35.4,3.3 34.1,3.7 32.8,4.2 C30.2,5.1 27.5,6.5 24.7,7.9 C21.9,9.3 18.9,10.7 15.8,11.4 C14.2,11.8 12.7,12 11.2,11.9 C9.7,11.9 8.3,11.6 7.1,11.1 C6.5,10.9 5.9,10.7 5.4,10.3 C5.1,10.2 4.9,10 4.7,9.9 C4.5,9.7 4.3,9.6 4.1,9.4 C3.3,8.8 2.6,8.2 2.1,7.7 C1.6,7.2 1.3,6.7 1.1,6.4 C1,6 0.8,5.9 0.8,5.9 Z" id="Shape"></path>
                <path d="M71.9,39.6 C71.9,39.6 72.6,40 73.8,40.7 C74.4,41 75.1,41.4 76,41.7 C76.2,41.8 76.4,41.9 76.7,42 C76.9,42.1 77.2,42.1 77.4,42.2 C77.6,42.3 77.9,42.3 78.1,42.4 C78.4,42.4 78.6,42.5 78.9,42.5 C80,42.7 81.1,42.6 82.3,42.5 C83.5,42.4 84.8,42 86.1,41.5 C88.7,40.6 91.4,39.2 94.2,37.8 C97,36.4 100,35 103.1,34.3 C104.7,33.9 106.2,33.7 107.7,33.8 C108.4,33.8 109.2,33.9 109.9,34 C110.6,34.2 111.3,34.3 111.9,34.6 C112.5,34.8 113.1,35 113.6,35.4 C113.9,35.5 114.1,35.7 114.3,35.8 C114.5,36 114.7,36.1 114.9,36.3 C115.8,36.9 116.3,37.5 116.8,38 C117.3,38.5 117.6,39 117.8,39.3 C118,39.6 118.1,39.8 118.1,39.8 C118.1,39.8 117.4,39.4 116.2,38.7 C115.6,38.4 114.9,38 114,37.7 C113.8,37.6 113.6,37.5 113.3,37.4 C113.1,37.3 112.8,37.3 112.6,37.2 C112.4,37.1 112.1,37.1 111.9,37 C111.6,37 111.4,36.9 111.1,36.9 C110,36.7 108.9,36.8 107.7,36.9 C106.5,37 105.2,37.4 103.9,37.9 C101.3,38.8 98.6,40.2 95.8,41.6 C93,43 90,44.4 86.9,45.1 C85.3,45.5 83.8,45.7 82.3,45.6 C80.8,45.6 79.4,45.3 78.2,44.8 C77.6,44.6 77,44.4 76.5,44 C76.2,43.9 76,43.7 75.8,43.6 C75.6,43.4 75.4,43.3 75.2,43.1 C74.4,42.5 73.7,41.9 73.2,41.4 C72.7,40.9 72.4,40.4 72.2,40.1 C72,39.8 71.9,39.6 71.9,39.6 Z" id="Shape"></path>
                <path d="M214.1,15 C214.1,15 214.8,15.4 216,16.1 C216.6,16.4 217.3,16.8 218.2,17.1 C218.4,17.2 218.6,17.3 218.9,17.4 C219.1,17.5 219.4,17.5 219.6,17.6 C219.8,17.7 220.1,17.7 220.3,17.8 C220.6,17.8 220.8,17.9 221.1,17.9 C222.2,18.1 223.3,18 224.5,17.9 C225.7,17.8 227,17.4 228.3,16.9 C230.9,16 233.6,14.6 236.4,13.2 C239.2,11.8 242.2,10.4 245.3,9.7 C246.9,9.3 248.4,9.1 249.9,9.2 C250.6,9.2 251.4,9.3 252.1,9.4 C252.8,9.6 253.5,9.7 254.1,10 C254.7,10.2 255.3,10.4 255.8,10.8 C256.1,10.9 256.3,11.1 256.5,11.2 C256.7,11.4 256.9,11.5 257.1,11.7 C258,12.3 258.5,12.9 259,13.4 C259.5,13.9 259.8,14.4 260,14.7 C260.2,15 260.3,15.2 260.3,15.2 C260.3,15.2 259.6,14.8 258.4,14.1 C257.8,13.8 257.1,13.4 256.2,13.1 C256,13 255.8,12.9 255.5,12.8 C255.3,12.7 255,12.7 254.8,12.6 C254.6,12.5 254.3,12.5 254.1,12.4 C253.8,12.4 253.6,12.3 253.3,12.3 C252.2,12.1 251.1,12.2 249.9,12.3 C248.7,12.4 247.4,12.8 246.1,13.3 C243.5,14.2 240.8,15.6 238,17 C235.2,18.4 232.2,19.8 229.1,20.5 C227.5,20.9 226,21.1 224.5,21 C223,21 221.6,20.7 220.4,20.2 C219.8,20 219.2,19.8 218.7,19.4 C218.4,19.3 218.2,19.1 218,19 C217.8,18.8 217.6,18.7 217.4,18.5 C216.6,17.9 215.9,17.3 215.4,16.8 C214.9,16.3 214.6,15.8 214.4,15.5 C214.2,15.2 214.1,15 214.1,15 Z" id="Shape"></path>
                <path d="M312.9,20.9 C312.9,20.9 313.6,21.3 314.8,22 C315.4,22.3 316.1,22.7 317,23 C317.2,23.1 317.4,23.2 317.7,23.3 C317.9,23.4 318.2,23.4 318.4,23.5 C318.6,23.6 318.9,23.6 319.1,23.7 C319.4,23.7 319.6,23.8 319.9,23.8 C321,24 322.1,23.9 323.3,23.8 C324.5,23.7 325.8,23.3 327.1,22.8 C329.7,21.9 332.4,20.5 335.2,19.1 C338,17.7 341,16.3 344.1,15.6 C345.7,15.2 347.2,15 348.7,15.1 C349.4,15.1 350.2,15.2 350.9,15.3 C351.6,15.5 352.3,15.6 352.9,15.9 C353.5,16.1 354.1,16.3 354.6,16.7 C354.9,16.8 355.1,17 355.3,17.1 C355.5,17.3 355.7,17.4 355.9,17.6 C356.8,18.2 357.3,18.8 357.8,19.3 C358.3,19.8 358.6,20.3 358.8,20.6 C359,20.9 359.1,21.1 359.1,21.1 C359.1,21.1 358.4,20.7 357.2,20 C356.6,19.7 355.9,19.3 355,19 C354.8,18.9 354.6,18.8 354.3,18.7 C354.1,18.6 353.8,18.6 353.6,18.5 C353.4,18.4 353.1,18.4 352.9,18.3 C352.6,18.3 352.4,18.2 352.1,18.2 C351,18 349.9,18.1 348.7,18.2 C347.5,18.3 346.2,18.7 344.9,19.2 C342.3,20.1 339.6,21.5 336.8,22.9 C334,24.3 331,25.7 327.9,26.4 C326.3,26.8 324.8,27 323.3,26.9 C321.8,26.9 320.4,26.6 319.2,26.1 C318.6,25.9 318,25.7 317.5,25.3 C317.2,25.2 317,25 316.8,24.9 C316.6,24.7 316.4,24.6 316.2,24.4 C315.4,23.8 314.7,23.2 314.2,22.7 C313.7,22.2 313.4,21.7 313.2,21.4 C313,21.1 312.9,20.9 312.9,20.9 Z" id="Shape"></path>
                <path d="M250,78.2 C250,78.2 250.7,78.6 251.9,79.3 C252.5,79.6 253.2,80 254.1,80.3 C254.3,80.4 254.5,80.5 254.8,80.6 C255,80.7 255.3,80.7 255.5,80.8 C255.7,80.9 256,80.9 256.2,81 C256.5,81 256.7,81.1 257,81.1 C258.1,81.3 259.2,81.2 260.4,81.1 C261.6,81 262.9,80.6 264.2,80.1 C266.8,79.2 269.5,77.8 272.3,76.4 C275.1,75 278.1,73.6 281.2,72.9 C282.8,72.5 284.3,72.3 285.8,72.4 C286.5,72.4 287.3,72.5 288,72.6 C288.7,72.8 289.4,72.9 290,73.2 C290.6,73.4 291.2,73.6 291.7,74 C292,74.1 292.2,74.3 292.4,74.4 C292.6,74.6 292.8,74.7 293,74.9 C293.9,75.5 294.4,76.1 294.9,76.6 C295.4,77.1 295.7,77.6 295.9,77.9 C296.1,78.2 296.2,78.4 296.2,78.4 C296.2,78.4 295.5,78 294.3,77.3 C293.7,77 293,76.6 292.1,76.3 C291.9,76.2 291.7,76.1 291.4,76 C291.2,75.9 290.9,75.9 290.7,75.8 C290.5,75.7 290.2,75.7 290,75.6 C289.7,75.6 289.5,75.5 289.2,75.5 C288.1,75.3 287,75.4 285.8,75.5 C284.6,75.6 283.3,76 282,76.5 C279.4,77.4 276.7,78.8 273.9,80.2 C271.1,81.6 268.1,83 265,83.7 C263.4,84.1 261.9,84.3 260.4,84.2 C258.9,84.2 257.5,83.9 256.3,83.4 C255.7,83.2 255.1,83 254.6,82.6 C254.3,82.5 254.1,82.3 253.9,82.2 C253.7,82 253.5,81.9 253.3,81.7 C252.5,81.1 251.8,80.5 251.3,80 C250.8,79.5 250.5,79 250.3,78.7 C250.1,78.3 250,78.2 250,78.2 Z" id="Shape"></path>
                <path d="M112.7,102 C112.7,102 113.4,102.4 114.6,103.1 C115.2,103.4 115.9,103.8 116.8,104.1 C117,104.2 117.2,104.3 117.5,104.4 C117.7,104.5 118,104.5 118.2,104.6 C118.4,104.7 118.7,104.7 118.9,104.8 C119.2,104.8 119.4,104.9 119.7,104.9 C120.8,105.1 121.9,105 123.1,104.9 C124.3,104.8 125.6,104.4 126.9,103.9 C129.5,103 132.2,101.6 135,100.2 C137.8,98.8 140.8,97.4 143.9,96.7 C145.5,96.3 147,96.1 148.5,96.2 C149.2,96.2 150,96.3 150.7,96.4 C151.4,96.6 152.1,96.7 152.7,97 C153.3,97.2 153.9,97.4 154.4,97.8 C154.7,97.9 154.9,98.1 155.1,98.2 C155.3,98.4 155.5,98.5 155.7,98.7 C156.6,99.3 157.1,99.9 157.6,100.4 C158.1,100.9 158.4,101.4 158.6,101.7 C158.8,102 158.9,102.2 158.9,102.2 C158.9,102.2 158.2,101.8 157,101.1 C156.4,100.8 155.7,100.4 154.8,100.1 C154.6,100 154.4,99.9 154.1,99.8 C153.9,99.7 153.6,99.7 153.4,99.6 C153.2,99.5 152.9,99.5 152.7,99.4 C152.4,99.4 152.2,99.3 151.9,99.3 C150.8,99.1 149.7,99.2 148.5,99.3 C147.3,99.4 146,99.8 144.7,100.3 C142.1,101.2 139.4,102.6 136.6,104 C133.8,105.4 130.8,106.8 127.7,107.5 C126.1,107.9 124.6,108.1 123.1,108 C121.6,108 120.2,107.7 119,107.2 C118.4,107 117.8,106.8 117.3,106.4 C117,106.3 116.8,106.1 116.6,106 C116.4,105.8 116.2,105.7 116,105.5 C115.2,104.9 114.5,104.3 114,103.8 C113.5,103.3 113.2,102.8 113,102.5 C112.8,102.1 112.7,102 112.7,102 Z" id="Shape"></path>
            </g>
            <g id="Group" transform="translate(30.000000, 66.000000)" fill="#2B3B4E">
                <rect id="Rectangle-path" x="40.8" y="0.8" width="1" height="3.2"></rect>
                <rect id="Rectangle-path" x="38" y="0.8" width="1" height="3.2"></rect>
                <rect id="Rectangle-path" x="35.3" y="0.8" width="1" height="3.2"></rect>
                <rect id="Rectangle-path" x="32.6" y="0.8" width="1" height="3.2"></rect>
                <rect id="Rectangle-path" x="29.9" y="0.8" width="1" height="3.2"></rect>
                <rect id="Rectangle-path" x="27.2" y="0.8" width="1" height="3.2"></rect>
                <rect id="Rectangle-path" x="24.5" y="0.8" width="1" height="3.2"></rect>
                <rect id="Rectangle-path" x="21.8" y="0.8" width="1" height="3.2"></rect>
                <rect id="Rectangle-path" x="19.1" y="0.8" width="1" height="3.2"></rect>
                <rect id="Rectangle-path" x="16.4" y="0.8" width="1" height="3.2"></rect>
                <rect id="Rectangle-path" x="13.7" y="0.8" width="1" height="3.2"></rect>
                <rect id="Rectangle-path" x="10.9" y="0.8" width="1" height="3.2"></rect>
                <rect id="Rectangle-path" x="8.2" y="0.8" width="1" height="3.2"></rect>
                <rect id="Rectangle-path" x="5.5" y="0.8" width="1" height="3.2"></rect>
                <rect id="Rectangle-path" x="2.8" y="0.8" width="1" height="3.2"></rect>
                <rect id="Rectangle-path" x="0.1" y="0.8" width="1" height="3.2"></rect>
            </g>
            <path d="M321.1,78.5 L459.4,78.5 C458.5,70.1 453.1,62.2 444.1,55.2 L321.1,55.2 L321.1,78.5 Z" id="Shape" fill="#ACB3BA"></path>
            <path d="M330.1,55.2 L438.1,55.2 C437.4,48.1 433.2,41.4 426.2,35.5 L330.1,35.5 L330.1,55.2 Z" id="Shape" fill="#CED5E0"></path>
            <path d="M337.5,35.5 L419.3,35.5 C418.8,29.6 415.6,24.1 410.3,19.3 L337.5,19.3 L337.5,35.5 Z" id="Shape" fill="#E6E9EE"></path>
            <path d="M311,76.5 L301.8,92.1 C301.8,92.1 164.9,90.1 111.9,90.1 C74.7,90.1 72.7,72 72.6,69.5 L29.1,69.5 C32,78.2 46.4,96.3 46.4,96.3 C30.9,108.3 36,115.8 36,115.8 L437.6,115.8 C462.9,114.9 466.5,85.8 466.9,76.5 L311,76.5 Z" id="Shape" fill="#324A5E"></path>
            <g id="Group" transform="translate(329.000000, 22.000000)" fill="#54C0EB">
                <rect id="Rectangle-path" x="0.2" y="38.5" width="7.4" height="6.1"></rect>
                <rect id="Rectangle-path" x="16.7" y="38.5" width="7.4" height="6.1"></rect>
                <rect id="Rectangle-path" x="33.2" y="38.5" width="7.4" height="6.1"></rect>
                <rect id="Rectangle-path" x="49.8" y="38.5" width="7.4" height="6.1"></rect>
                <rect id="Rectangle-path" x="66.3" y="38.5" width="7.4" height="6.1"></rect>
                <rect id="Rectangle-path" x="82.9" y="38.5" width="7.4" height="6.1"></rect>
                <rect id="Rectangle-path" x="99.4" y="38.5" width="7.4" height="6.1"></rect>
                <rect id="Rectangle-path" x="5" y="17.3" width="6.2" height="5.1"></rect>
                <rect id="Rectangle-path" x="19" y="17.3" width="6.2" height="5.1"></rect>
                <rect id="Rectangle-path" x="33" y="17.3" width="6.2" height="5.1"></rect>
                <rect id="Rectangle-path" x="46.9" y="17.3" width="6.2" height="5.1"></rect>
                <rect id="Rectangle-path" x="60.9" y="17.3" width="6.2" height="5.1"></rect>
                <rect id="Rectangle-path" x="74.9" y="17.3" width="6.2" height="5.1"></rect>
                <rect id="Rectangle-path" x="88.9" y="17.3" width="6.2" height="5.1"></rect>
                <rect id="Rectangle-path" x="12.1" y="0.3" width="4.6" height="3.8"></rect>
                <rect id="Rectangle-path" x="22.3" y="0.3" width="4.6" height="3.8"></rect>
                <rect id="Rectangle-path" x="32.5" y="0.3" width="4.6" height="3.8"></rect>
                <rect id="Rectangle-path" x="42.8" y="0.3" width="4.6" height="3.8"></rect>
                <rect id="Rectangle-path" x="53" y="0.3" width="4.6" height="3.8"></rect>
                <rect id="Rectangle-path" x="63.2" y="0.3" width="4.6" height="3.8"></rect>
                <rect id="Rectangle-path" x="73.4" y="0.3" width="4.6" height="3.8"></rect>
            </g>
            <rect id="Rectangle-path" fill="#324A5E" x="351.3" y="0.2" width="18.3" height="19.1"></rect>
            <rect id="Rectangle-path" fill="#ACB3BA" x="351.3" y="0.2" width="18.3" height="5.1"></rect>
            <rect id="Rectangle-path" fill="#324A5E" x="375" y="3.2" width="15.4" height="16.1"></rect>
            <rect id="Rectangle-path" fill="#ACB3BA" x="375" y="3.2" width="15.4" height="4.3"></rect>
            <path d="M72.2,67.5 L29.3,67.5 C29.2,67.5 29.1,67.4 29.1,67.3 L29.1,66 C29.1,65.9 29.2,65.8 29.3,65.8 L72.1,65.8 C72.2,65.8 72.3,65.9 72.3,66 L72.3,67.3 C72.4,67.4 72.3,67.5 72.2,67.5 Z" id="Shape" fill="#324A5E"></path>
        </g>
        <g id="bonsai" transform="translate(103.000000, 0.000000)" fill-rule="nonzero">
            <rect id="Rectangle-path" fill="#96583C" x="13" y="136" width="155" height="13"></rect>
            <path d="M148.767283,171 L30.2327174,171 C23.4775217,171 18,165.462286 18,158.632857 L18,149 L161,149 L161,158.632857 C161,165.462286 155.522478,171 148.767283,171 Z" id="Shape" fill="#B79A7B"></path>
            <rect id="Rectangle-path" fill="#96583C" x="37" y="171" width="18" height="9"></rect>
            <rect id="Rectangle-path" fill="#96583C" x="124" y="171" width="18" height="9"></rect>
            <path d="M82.4076429,52.1480645 C81.3978214,50.1917082 81.9198214,47.8254487 83.62875,46.4373673 C85.7043214,44.7542799 87,42.3818097 87,39.7360707 C87,34.5905431 82.1311071,30.4200884 76.125,30.4200884 C74.3352857,30.4200884 72.6729643,30.8268863 71.1846429,31.4821104 C70.0940357,27.3240769 65.772,24.2094335 60.5892857,24.2094335 C57.4106786,24.2094335 54.5769643,25.3987739 52.5852857,27.2619704 C50.2611429,24.7093912 46.9427143,23.0790943 43.21725,23.0790943 C40.6756071,23.0790943 38.3203929,23.8430049 36.3349286,25.1286104 C33.4670357,20.0420841 27.51375,16.9243353 21.0073929,18.34347 C16.2658929,19.3744387 12.3353571,23.0107771 10.8594643,27.628399 C9.85585714,30.7678851 10.0112143,33.7614207 10.9060714,36.419581 C4.60167857,38.2920934 0,44.1207931 0,51.0270413 C0,59.445584 6.8295,66.2710937 15.2529643,66.2710937 C15.486,66.2710937 15.7128214,66.2462511 15.94275,66.2369351 C17.50875,70.6868693 21.7065,73.8946726 26.6934643,73.8946726 C29.4122143,73.8946726 31.8730714,72.9133891 33.8243571,71.3234614 C36.8693571,74.7362163 42.1483929,77 48.1607143,77 C54.2072143,77 59.5111071,74.714479 62.5436786,71.2675655 C64.1904643,69.3981584 66.7476429,68.8547261 69.0096429,69.9012215 C70.2493929,70.4726017 71.5978929,70.7893451 73.0178571,70.7893451 C79.0239643,70.7893451 83.8928571,65.2277037 83.8928571,58.3680354 C83.8928571,56.0918303 83.3491071,53.973997 82.4076429,52.1480645 Z" id="Shape" fill="#43B05C"></path>
            <path d="M40.4615385,87.0112823 L40.4615385,76.300933 C37.8184615,75.3026687 35.5661538,73.8223765 33.9569231,72 C32.0246154,73.5891372 29.5876923,74.5718522 26.8953846,74.5718522 C25.1323077,74.5718522 23.48,74.1489115 22,73.418095 L22,96.3408548 L22,105.670427 C22,110.823461 26.1323077,115 31.2307692,115 L38.5753846,115 C41.3476923,113.0439 44.7138462,111.890142 48.3538462,111.890142 C55.8892308,111.890142 62,105.713965 62,98.0979244 L62,96.3408548 L49.6923077,96.3408548 C44.5938462,96.3408548 40.4615385,92.1643162 40.4615385,87.0112823 Z" id="Shape" fill="#6B4842"></path>
            <path d="M167.27032,39.2876957 C173.48536,37.2533913 178,31.527087 178,24.6956522 C178,16.1725652 171.01432,9.26086957 162.4,9.26086957 C161.21752,9.26086957 160.07248,9.41521739 158.96488,9.66217391 C157.72312,4.1396087 152.7592,0 146.8,0 C139.90792,0 134.32,5.52873913 134.32,12.3478261 C134.32,13.3356522 134.46664,14.2833478 134.68816,15.2032609 C133.23736,16.2219565 131.97376,17.4814348 130.94416,18.9137826 C130.92544,18.9168696 130.9036,18.9199565 130.88488,18.9230435 C129.64312,13.4004783 124.6792,9.26086957 118.72,9.26086957 C111.82792,9.26086957 106.24,14.7896087 106.24,21.6086957 C106.24,22.5965217 106.38664,23.5442174 106.60816,24.4641304 C102.6208,27.260913 100,31.8388696 100,37.0434783 C100,45.5665652 106.98568,52.4782609 115.6,52.4782609 C120.11776,52.4782609 124.15504,50.548913 127.0036,47.5113478 C127.07848,47.5514783 127.1596,47.5792609 127.23448,47.6193913 C125.80864,49.9376957 124.96,52.6449565 124.96,55.5652174 C124.96,64.0883043 131.94568,71 140.56,71 C145.07776,71 149.11504,69.0706522 151.9636,66.033087 C154.15384,67.1937826 156.62176,67.9130435 159.28,67.9130435 C167.89432,67.9130435 174.88,61.0013478 174.88,52.4782609 C174.88,46.856913 171.80992,41.9856957 167.27032,39.2876957 Z" id="Shape" fill="#88C057"></path>
            <path d="M123.746123,55.7140146 C123.746123,52.7858339 124.587076,50.0712308 126,47.7435438 C125.925798,47.7063999 125.845413,47.6754466 125.771211,47.6352073 C122.948455,50.6841059 118.947747,52.6186861 114.470911,52.6186861 C105.934623,52.6186861 99.0122228,45.6882457 99.0122228,37.1420438 C99.0122228,31.92332 101.609282,27.3329479 105.560523,24.5285803 C105.34101,23.6061725 105.195698,22.6559066 105.195698,21.6654015 C105.195698,18.9136545 106.120127,16.4002478 107.635079,14.3449497 C107.26407,11.9955954 106.219063,9.73291029 104.410397,7.92214314 C99.8562672,3.36272431 92.4731979,3.36272431 87.9190685,7.92214314 C87.8634172,7.97785905 87.8201329,8.03667029 87.7644816,8.0923862 C87.217244,6.38376489 86.2742641,4.77419409 84.920083,3.41844022 C79.8063491,-1.70123305 71.12475,-1.06978605 66.8890696,5.30968592 C64.3754869,9.0921773 64.3754869,14.177802 66.8581522,17.9819606 C68.4071127,20.3591729 70.571329,21.9254091 72.9365083,22.7240038 C73.0539943,22.7642431 73.0880034,22.8973422 73.01071,22.9932974 C70.948521,25.5128948 70.2281462,28.747513 70.818668,31.7747443 C70.8434019,31.8552228 70.8835945,31.9295107 70.9052367,32.0130846 C72.3892707,31.3568749 74.0433503,30.9513869 75.8241911,30.9513869 C81.8005198,30.9513869 86.6452726,35.108413 86.6452726,40.2373723 C86.6452726,42.8776875 85.356018,45.2394231 83.2907373,46.9201864 C82.0262167,47.9478355 81.4233279,49.5140717 81.6026486,51.0493546 C81.7201347,51.1762631 81.8036116,51.3217435 81.9241893,51.4424613 C85.4580454,54.9804218 90.6923571,55.7666352 94.9867805,53.8134829 C95.4690916,53.5937146 95.9730448,53.4884734 96.4800898,53.4296622 C98.220738,60.0753324 104.200158,65 111.379173,65 C116.613485,65 121.220174,62.3813521 124.015104,58.3976644 C123.863609,57.5216864 123.746123,56.6333272 123.746123,55.7140146 Z" id="Shape" fill="#23A24D"></path>
            <path d="M131.719211,111.384615 L103.771842,111.384615 C96.1670526,111.384615 90,105.273846 90,97.7384615 C90,89.9815385 96.3471579,83.6923077 104.175526,83.6923077 L121.052632,83.6923077 L124.272789,83.6923077 C124.244842,83.3169231 124.157895,82.9569231 124.157895,82.5723077 C124.157895,76.8553846 127.387368,71.92 132.116684,69.3569231 C128.138842,67.1384615 125.244737,63.28 124.428053,58.6676923 C121.620895,62.6276923 116.994053,65.2307692 111.736842,65.2307692 C105.380368,65.2307692 99.9678947,61.4246154 97.5768421,56 L83.4292632,56 C83.6590526,56.9815385 83.7894737,58.0123077 83.7894737,59.0769231 C83.7894737,65.8738462 78.9235263,71.3846154 72.9210526,71.3846154 C71.5019474,71.3846154 70.1542632,71.0707692 68.9183684,70.5046154 C66.6577368,69.4707692 64.099,70.0061538 62.4563158,71.8584615 C62.3321053,71.9969231 62.1830526,72.1230769 62.0526316,72.2553846 L62.0526316,74.4615385 L62.0526316,83.6923077 L62.0526316,97.7384615 C62.0526316,105.273846 55.8855789,111.384615 48.2807895,111.384615 C38.7383158,111.384615 31,119.049231 31,128.507692 L31,136 L149,136 L149,128.507692 C149,119.049231 141.261684,111.384615 131.719211,111.384615 Z" id="Shape" fill="#6B5B4B"></path>
            <path d="M180,67.0606271 C180,62.26604 177.284,58.1453536 173.323556,56 C171.702667,62.8162892 165.576889,67.9045486 158.222222,67.9045486 C155.571556,67.9045486 153.110667,67.1842786 150.926667,66.0219545 C148.086222,69.0637815 144.060444,70.9958362 139.555556,70.9958362 C136.786667,70.9958362 134.226222,70.2168317 131.973778,68.9586777 C127.235556,71.5337203 124,76.4921456 124,82.235758 C124,90.6162387 130.838222,97.4108889 139.272444,97.4108889 C139.505778,97.4108889 139.732889,97.3861586 139.963111,97.3768847 C141.531111,101.8067 145.734222,105 150.727556,105 C156.638667,105 161.445333,100.536181 162.061333,94.8234812 C170.660444,94.2361365 177.455111,87.1354489 177.455111,78.4427481 C177.455111,77.2680588 177.324444,76.1242824 177.091111,75.0176014 C178.88,72.8413349 180,70.0931802 180,67.0606271 Z" id="Shape" fill="#61B872"></path>
            <circle id="Oval" fill="#23A24D" cx="89" cy="51" r="11"></circle>
        </g>
    </g>
</svg>