<?xml version="1.0" encoding="UTF-8" standalone="no"?>
<!DOCTYPE svg PUBLIC "-//W3C//DTD SVG 1.1//EN" "http://www.w3.org/Graphics/SVG/1.1/DTD/svg11.dtd">
<svg width="100%" height="100%" viewBox="0 0 273 299" version="1.1" xmlns="http://www.w3.org/2000/svg" xmlns:xlink="http://www.w3.org/1999/xlink" xml:space="preserve" xmlns:serif="http://www.serif.com/" style="fill-rule:evenodd;clip-rule:evenodd;stroke-linejoin:round;stroke-miterlimit:1.41421;">
    <g transform="matrix(1,0,0,1,-1848.55,-482.469)">
        <g transform="matrix(0.547934,0,0,0.547934,879.124,334.374)">
            <g transform="matrix(1,0,0,1,1762.5,256.113)">
                <g transform="matrix(0.79038,0,0,0.79038,53.6626,14.1653)">
                    <path d="M321.413,120.124L256.3,214.642L256,214.342L190.888,119.822C217.293,55.61 240.697,11.102 242.797,6.9C245.498,2.399 250.599,0 256,0C261.401,0 266.501,2.399 269.203,6.9C271.303,11.102 294.707,55.61 321.413,120.124Z" style="fill:rgb(254,219,65);fill-rule:nonzero;"/>
                </g>
                <g transform="matrix(0.79038,0,0,0.79038,53.6626,14.1653)">
                    <path d="M321.413,120.124L256.3,214.642L256,214.342L256,0C261.401,0 266.501,2.399 269.203,6.9C271.303,11.102 294.707,55.61 321.413,120.124Z" style="fill:rgb(252,191,41);fill-rule:nonzero;"/>
                </g>
                <g transform="matrix(0.79038,0,0,0.79038,53.6626,14.1653)">
                    <path d="M333.119,149.626C338.355,145.066 343.197,140.079 348.611,135.725C355.057,130.538 356.083,121.088 350.896,114.627C345.709,108.166 336.23,107.126 329.798,112.342C326.82,114.737 324.203,117.536 321.274,119.992C297.793,139.682 276.137,161.347 256.262,184.519L245.122,208.343L274.841,255.586L314.435,267.005L325.959,273.785L354.139,253.678L362.121,232.98C352.854,202.943 342.959,175.061 333.119,149.626Z" style="fill:rgb(255,136,32);fill-rule:nonzero;"/>
                </g>
                <g transform="matrix(0.79038,0,0,0.79038,53.6626,14.1653)">
                    <path d="M314.512,267.153L303.11,292.958L267.403,328.064L256.301,323.863L256,323.863L213.991,310.061L164.782,272.554L149.779,232.946C159.081,202.94 168.982,175.035 178.884,149.529C173.784,145.029 168.683,140.227 163.28,135.727C156.98,130.625 155.779,121.022 161.182,114.723C166.282,108.121 175.584,107.222 182.185,112.322C185.187,114.723 187.886,117.422 190.888,119.823C214.592,139.926 236.197,160.931 256,184.337L256.3,184.637C273.705,205.04 297.108,236.847 314.512,267.153Z" style="fill:rgb(254,168,50);fill-rule:nonzero;"/>
                </g>
                <g transform="matrix(0.79038,0,0,0.79038,53.6626,14.1653)">
                    <path d="M314.512,267.153L303.11,292.958L267.403,328.064L256.301,323.863L256,323.863L256,184.336L256.3,184.636C273.705,205.04 297.108,236.847 314.512,267.153Z" style="fill:rgb(254,153,35);fill-rule:nonzero;"/>
                </g>
                <g transform="matrix(0.79038,0,0,0.79038,53.6626,14.1653)">
                    <path d="M370.888,263.135C386.065,253.454 367.216,264.743 387.598,252.496C394.703,248.232 397.004,239.002 392.741,231.911C388.492,224.82 379.261,222.505 372.156,226.768C362.449,232.599 362.12,232.978 362.12,232.978C345.348,243.214 329.578,254.731 314.436,267.002C294.177,283.419 276.249,300.347 256.309,323.807L349.586,512L391.027,512C399.32,512 406.03,505.29 406.03,496.997C406.03,415.569 390.939,334.926 370.888,263.135Z" style="fill:rgb(254,168,50);fill-rule:nonzero;"/>
                </g>
                <g transform="matrix(0.79038,0,0,0.79038,53.6626,14.1653)">
                    <path d="M349.618,512L120.973,512C112.57,512 105.97,505.4 105.97,496.997C105.97,415.68 120.973,334.964 141.076,263.252C136.876,260.55 135.075,259.051 134.176,258.45L133.876,258.45C132.677,257.251 129.975,255.75 124.274,252.449C117.374,248.249 114.972,238.947 119.174,232.045C123.375,224.844 132.677,222.443 139.878,226.644C149.48,232.645 149.781,232.946 149.781,232.946C190.589,257.851 225.995,288.156 256.001,323.563L256.301,323.863C299.209,374.573 333.415,440.887 349.618,512Z" style="fill:rgb(254,219,65);fill-rule:nonzero;"/>
                </g>
                <g transform="matrix(0.79038,0,0,0.79038,53.6626,14.1653)">
                    <path d="M349.618,512L256,512L256,323.563L256.3,323.863C299.209,374.573 333.415,440.887 349.618,512Z" style="fill:rgb(252,191,41);fill-rule:nonzero;"/>
                </g>
            </g>
            <g transform="matrix(8.73343,0,0,8.73343,1383.56,-3380.74)">
                <text x="44.101px" y="473.932px" style="font-family:'Athelas-Regular', 'Athelas';font-size:12px;fill:rgb(227,106,0);">A<tspan x="53.785px 61.921px 70.537px 79.237px 88.465px 97.669px " y="473.932px 473.932px 473.932px 473.932px 473.932px 473.932px ">LBERTI</tspan></text>
            </g>
            <g transform="matrix(8.27399,0,0,8.27399,1406.46,-3107.43)">
                <text x="44.101px" y="473.932px" style="font-family:'Athelas-Regular', 'Athelas';font-size:7.328px;fill:rgb(227,106,0);">A<tspan x="50.015px 54.939px 58.303px 64.217px 70.38px 72.798px 77.766px 82.735px 88.649px 94.812px 100.432px " y="473.932px 473.932px 473.932px 473.932px 473.932px 473.932px 473.932px 473.932px 473.932px 473.932px 473.932px ">SIAN PLANTS</tspan></text>
            </g>
        </g>
    </g>
</svg>
